<?xml version="1.0" encoding="utf-8"?>
<!-- Generator: Adobe Illustrator 22.0.1, SVG Export Plug-In . SVG Version: 6.00 Build 0)  -->
<svg version="1.1" id="Layer_1" xmlns="http://www.w3.org/2000/svg" xmlns:xlink="http://www.w3.org/1999/xlink" x="0px" y="0px"
	 viewBox="0 0 1000 1000" style="enable-background:new 0 0 1000 1000;" xml:space="preserve">
<style type="text/css">
	.st0{fill:#007AC0;}
</style>
<g>
	<g>
		<path class="st0" d="M503.7,626.9v-52.2c-2.4,0-22.2,0-22.2,0c-3.8,0-4.6,1.8-4.6,4.4v47.7c0,5.9-4.6,6.1-9.1,6.1
			c-4.3,0-9.2-0.2-9.2-6.1V566c0-6.5,6.5-6.5,9-6.5h65.7c22.1,0,32.4,11.4,32.4,29.6v37.8c0,5.9-4.6,6.1-9.1,6.1
			c-4.3,0-9.1-0.2-9.1-6.1V592c0-11.3-4.7-17.3-16.7-17.3c0,0-6.9,0-8.7,0v52.2c0,5.9-4.6,6.1-9.1,6.1
			C508.5,633,503.7,632.8,503.7,626.9 M792.4,539.4v87.4c0,5.9,4.9,6.1,9.2,6.1c4.5,0,9.1-0.2,9.1-6.1v-87.4c0-5.9-4.6-6.1-9.1-6.1
			C797.3,533.3,792.4,533.5,792.4,539.4 M760.3,565.6v61.3c0,5.9,4.9,6.1,9.2,6.1c4.5,0,9.1-0.2,9.1-6.1v-61.3
			c0-5.9-4.6-6.2-9.1-6.2C765.2,559.5,760.3,559.7,760.3,565.6 M759.6,539c0,5.2,3.5,9.2,9.9,9.2s9.9-4.1,9.9-9.2
			c0-5.2-3.6-9.2-9.9-9.2C763.4,529.9,759.6,533.7,759.6,539L759.6,539z M577.8,595.9c0-18.9,11.2-37.4,41.7-37.4
			c32.8,0,41.7,21,41.7,37.4c0,16.3-8.9,37.3-41.7,37.3C588.9,633.2,577.8,614.8,577.8,595.9 M619.5,572.8
			c-16.2,0-23.1,11-23.1,23.1c0,12,6.8,23,23.1,23c15.4,0,23.1-9.8,23.1-23C642.6,582.7,634.8,572.8,619.5,572.8L619.5,572.8z
			 M705.2,574.7c0,0-11.4,0-13.6,0c0,2.4,0,38.1,0,38.1c0,3,1.3,4.3,4.5,4.3h9.1c16,0,24.5-6.9,24.5-21.2
			C729.6,581.5,721.2,574.7,705.2,574.7 M682.4,531.5c4.5,0,9.2,0.2,9.2,6.1c0,0,0,19.6,0,21.9c2.2,0,14.3,0,14.3,0
			c27.7,0,42.5,16.2,42.5,36.4c0,20.7-15.2,36.4-42.5,36.4h-23.5c-4.2,0-9.1-0.8-9.1-6.7v-88C673.3,531.7,678.1,531.5,682.4,531.5
			L682.4,531.5z M878.4,565.6c0,0,0,48.9,0,51.4c-2.2,0-17.2,0-17.2,0c-14.4,0-18.3-7-18.3-19.1v-32.4c0-5.9-4.6-6.2-9.1-6.2
			c-4.3,0-9.2,0.2-9.2,6.2c0,11,0,32.5,0,32.7c0-0.1,0-0.1,0-0.1c0,20.5,11.6,34,35.4,34c0,0,16.7,0,19,0
			c-0.2,3.9-1.8,11.5-18.2,11.5h-23.1c-5,0-5.4,4.1-5.4,7.6s0.4,7.6,5.4,7.6h26c22.9,0,33.1-12.4,33.1-32.6v-60.7
			c0-5.9-4.6-6.2-9.1-6.2C883.3,559.5,878.4,559.7,878.4,565.6"/>
		<path class="st0" d="M695.1,408.4v72.7c0,3.4,1.8,5.2,5,5.2h28.2c15,0,21.5-8,21.5-20.6v-22.9c0-4.9-4.5-5.7-8.4-5.7
			s-8.5,0.1-8.5,5.7v21.5c0,6.1-3.2,7.6-9,7.6c0,0-9.9,0-12,0c0-2.5,0-63.3,0-63.3c0-5.7-4.2-5.9-8.4-5.9
			C699.7,402.8,695.1,402.9,695.1,408.4 M774.8,464.2v7.8c0,0,29.8,0,32.3,0c-0.4-10.9-5.6-21.1-18.2-21.1
			C781,450.8,774.8,455.8,774.8,464.2 M900.1,463.5v10c0,9-4.5,12.8-12.4,12.8h-19.8c-4.8,0-4.8-4.1-4.8-7.2c0-2.1-0.6-7.2,4.8-7.2
			h10.8c4,0,4.5-2.2,4.5-5.1v-1.4c0-10.2-7.2-14.6-15-14.6c-7.9,0-14.6,4.9-14.6,14.6c0,0,0,10.8,0,14.7c0,4.2-1.6,6.2-6.2,6.2
			c0,0-22.4,0-23.9,0c-2.9,12.9-16.4,26.3-40.1,26.3H772c-4.8,0-4.8-4.1-4.8-7.2c0-3.4,0-7.2,4.8-7.2h11.6c14.5,0,20.2-8,21.6-11.9
			c-3,0-42.6,0-42.6,0c-2.7,0-5.1-1.1-5.1-5.5v-13.2c0-18.1,11.4-31.6,31.9-31.6c25.9,0,35.7,21,35.8,35.9c1.3,0,8.3,0,8.3,0
			c2.8,0,3.4-1.5,3.4-3.3c0-2,0-5.2,0-5.2c0-15.2,11-27.4,31.7-27.4C890,436,900.1,449,900.1,463.5 M609.8,408.5V472h-14.1
			c-5.5,0-6.9-3.6-7.5-6.7l-2.2-11.2l0,0c-1.5-7.8-5-17-23.2-17H517c-5.4,0-4.8,5-4.8,7.2c0,3.1,0,7.2,4.8,7.2c0,0,24,0,26.4,0
			c0,2.2,0,13,0,13c0,5.3-2.6,7.6-8.9,7.6h-43.6c-11.9,0-18.1-7.5-18.1-18c0-10.2,6.1-17.8,18-17.8c3.3,0,4-2.1,4-6.8
			c0-2.2,0.5-7.5-3.8-7.5h-3.4c-17.7,0-31.7,12-31.7,32.2c0,17.8,11.2,32.3,32.5,32.3h49.8c14.8,0,22.2-6.5,22.2-21.1
			c0,0,0-11.6,0-13.8c0.9,0,1.8,0,1.8,0c5.3,0,7.2,1.4,8,5.5l0,0l2.7,13.4c1.5,7.7,7,16,21.9,16h71c13.4,0,21.1-7.4,21.1-20.4v-23
			c0-5.5-4.3-5.7-8.4-5.7c-4,0-8.5,0.2-8.5,5.7v21.6c0,4.8-2.1,7.4-8.9,7.4h-34.3v-63.5c0-5.5-4.3-5.6-8.4-5.6
			C614.3,402.8,609.8,403,609.8,408.5L609.8,408.5z"/>
		<path class="st0" d="M666.5,505.4c0,4.5,3.2,9,9.4,9s9.4-4.5,9.4-9s-3.2-9-9.4-9C669.7,496.4,666.5,500.9,666.5,505.4"/>
		<path class="st0" d="M642.4,505.4c0,4.5,3.2,9,9.5,9c6.2,0,9.4-4.5,9.4-9s-3.2-9-9.4-9C645.6,496.4,642.4,500.9,642.4,505.4"/>
		<path class="st0" d="M520.9,505.4c0,4.5,3.2,9,9.5,9c6.2,0,9.4-4.5,9.4-9s-3.3-9-9.4-9C524.2,496.4,520.9,500.9,520.9,505.4"/>
		<path class="st0" d="M497.2,505.4c0,4.5,3.3,9,9.5,9s9.4-4.5,9.4-9s-3.2-9-9.4-9C500.5,496.4,497.2,500.9,497.2,505.4"/>
		<path class="st0" d="M732.4,505.4c0,4.5,3.2,9,9.5,9c6.2,0,9.5-4.5,9.5-9s-3.3-9-9.5-9C735.6,496.4,732.4,500.9,732.4,505.4"/>
	</g>
</g>
<g>
	<path class="st0" d="M138.7,343c-36,0-33.8,38.2-33.8,38.2v135.5c0,0-2.3,34.9,34.2,45.5c5.6,1.6,195.2,52.2,276.3,69.9
		c0,0,0.8,0.2,2,0.2c2.7,0,7.2-0.9,7.6-6.5c0.6-8.2-7.5-10.9-7.5-10.9l-213-96.6c0,0-21-11.2-21-30.3v-46.2c0,0-2.3-20.1,19.1-20.1
		h124.1c21.3,0,19.1,20.1,19.1,20.1v61.4c0,14.1,10,19.7,10,19.7s58.3,26.2,59.1,26.7c1.4,0.7,2.6,1,3.6,1c7.4,0,6.5-16.6,6.5-16.6
		V381.2c0,0,2.2-38.2-33.8-38.2H138.7z"/>
</g>
</svg>
